<svg xmlns="http://www.w3.org/2000/svg" viewBox="0 0 32 32">
  <!-- cap -->
  <rect x="13.4" y="1.5" width="5.2" height="3" rx="0.5" fill="#b03a2e"/>
  <rect x="13.7" y="4.3" width="4.6" height="1.4" fill="#8f2d23"/>
  <!-- long neck -->
  <rect x="14.2" y="5.4" width="3.6" height="5" fill="#d3e8f5"/>
  <!-- bottle body -->
  <path d="M14.2 10.2 C 14.2 12.4 11 13.3 11 16.4 L 11 28 Q 11 30.5 13.6 30.5 L 18.4 30.5 Q 21 30.5 21 28 L 21 16.4 C 21 13.3 17.8 12.4 17.8 10.2 Z"
        fill="#d3e8f5" stroke="#5b8bb0" stroke-width="1"/>
  <!-- clear liquid -->
  <path d="M11 19 L21 19 L21 28 Q21 30.5 18.4 30.5 L13.6 30.5 Q11 30.5 11 28 Z" fill="#bfe0f2"/>
  <!-- white label -->
  <rect x="11" y="16.6" width="10" height="9.2" fill="#fbfbfb"/>
  <rect x="11" y="16.6" width="10" height="1.6" fill="#1f4e8c"/>
  <rect x="11" y="24.2" width="10" height="1.6" fill="#c0392b"/>
  <!-- ВОДКА -->
  <text x="16" y="22.2" text-anchor="middle" font-family="Arial, Helvetica, sans-serif" font-size="3.3" font-weight="700" letter-spacing="-0.2" fill="#1f4e8c">ВОДКА</text>
</svg>
